MoBL_ARMS_module2_4_allmuscles_wrist_states		
version=1		
nRows=215		
nColumns=3		
inDegrees=yes		
		
# SIMM Motion File Header:		
name MoBL_ARMS_module2_4_allmuscles_wrist_states		
datacolumns 3		
datarows 215		
otherdata 1		
range 1.905904268 2.348587781		
endheader		
time	deviation	flexion
1.905904268	-7.677099301	-56.93565021
1.906770112	-7.675594948	-57.03091738
1.907635957	-7.674072537	-57.12531481
1.908501802	-7.672530127	-57.21882862
1.909367646	-7.670963502	-57.31145192
1.910233491	-7.66936686	-57.40316821
1.911099336	-7.667731338	-57.49396827
1.91196518	-7.666048147	-57.58383215
1.912831025	-7.664306432	-57.67274742
1.913696869	-7.662496548	-57.76069036
1.914562714	-7.660607698	-57.84764548
1.915070166	-7.659460662	-57.89813722
1.915728038	-7.65792173	-57.96307313
1.917353825	-7.653845803	-58.12094974
1.918103761	-7.651832181	-58.19248869
1.918587282	-7.650489547	-58.23817164
1.919899102	-7.646679362	-58.36032225
1.920744225	-7.644104154	-58.43759446
1.92175859	-7.640902663	-58.52882835
1.922482831	-7.638552802	-58.5929305
1.923207071	-7.636156906	-58.65615254
1.924224494	-7.632727396	-58.743445
1.925095645	-7.629744215	-58.81674501
1.925966795	-7.626729877	-58.88868131
1.926837946	-7.623693207	-58.9592306
1.927601223	-7.62102099	-59.01987839
1.928364501	-7.618341467	-59.07942336
1.929127778	-7.615657716	-59.13784577
1.92951475	-7.614295861	-59.16703177
1.930420006	-7.611107635	-59.23415288
1.931277021	-7.60808525	-59.2961883
1.932134036	-7.605068477	-59.35673028
1.933350601	-7.600797537	-59.440065
1.934058578	-7.598312565	-59.48713743
1.934766555	-7.595823945	-59.53314875
1.935823204	-7.592094593	-59.59983106
1.936669276	-7.589088834	-59.65148979
1.937515348	-7.586059607	-59.70159498
1.938361421	-7.583003345	-59.75013214
1.939207493	-7.579916491	-59.79709579
1.939939021	-7.577222301	-59.83642287
1.940670548	-7.574504122	-59.87456248
1.941603412	-7.571004776	-59.92146753
1.942536275	-7.567471192	-59.96642852
1.94324955	-7.564749857	-59.99948942
1.943962824	-7.562014344	-60.03141099
1.944927626	-7.558298094	-60.07277345
1.945892427	-7.554571274	-60.11205216
1.946529689	-7.552109063	-60.13685165
1.947542766	-7.548201044	-60.17440856
1.948392384	-7.544935344	-60.2041468
1.949242001	-7.541686103	-60.23228679
1.950091618	-7.538456978	-60.25884067
1.950941235	-7.535251629	-60.28381537
1.951790853	-7.53207109	-60.30722822
1.952731767	-7.528579372	-60.33134527
1.953672681	-7.525118497	-60.35358043
1.954358202	-7.522615807	-60.36860414
1.955043724	-7.520128165	-60.38264934
1.956372744	-7.515352166	-60.40712387
1.957131866	-7.512655729	-60.41949866
1.957890987	-7.509986908	-60.43072523
1.95884044	-7.506694009	-60.44317977
1.959691045	-7.50379389	-60.45286567
1.960541649	-7.500947594	-60.46119274
1.961640237	-7.497363327	-60.46998402
1.962738826	-7.493897554	-60.47662866
1.963717383	-7.490921357	-60.48081092
1.96469594	-7.488058863	-60.48342018
1.965906108	-7.484685069	-60.48456725
1.967679023	-7.480079561	-60.48235109
1.972443508	-7.469321716	-60.45672838
1.977479329	-7.458410688	-60.40646984
1.981713788	-7.446975724	-60.35237081
1.985948246	-7.431856359	-60.29065651
1.98756588	-7.42499145	-60.26516232
1.989183514	-7.417530815	-60.23853797
1.993970612	-7.392377468	-60.15191107
1.997940508	-7.368883249	-60.06888202
2.001910405	-7.343954071	-59.97309802
2.006964912	-7.311052774	-59.82943791
2.01201942	-7.277006628	-59.65903927
2.016350817	-7.245990969	-59.49086667
2.019991911	-7.217414381	-59.33334881
2.023633006	-7.185713392	-59.1609382
2.0272741	-7.150394246	-58.97358199
2.030635536	-7.114129114	-58.78719942
2.033996972	-7.073702518	-58.58755547
2.036363649	-7.042373734	-58.43878038
2.037211303	-7.030527763	-58.38381408
2.038058957	-7.0183292	-58.32795971
2.041470832	-6.965610665	-58.0941251
2.043887604	-6.92472852	-57.91978369
2.047388155	-6.860223177	-57.65473247
2.050888706	-6.789261414	-57.37539957
2.054389256	-6.711275172	-57.08268233
2.057889807	-6.625397277	-56.77777681
2.061390358	-6.53062942	-56.46209442
2.064890909	-6.425928946	-56.13714014
2.06839146	-6.310266276	-55.80433898
2.071892011	-6.182740551	-55.46486941
2.075392561	-6.042685262	-55.11965684
2.078893112	-5.889741844	-54.76958991
2.082393663	-5.723845747	-54.41580381
2.085894214	-5.545171377	-54.05945366
2.088454369	-5.406658983	-53.79722617
2.091014525	-5.261878273	-53.53245475
2.09504159	-5.022375761	-53.1061967
2.09803381	-4.835679189	-52.77829851
2.10102603	-4.641898616	-52.43835366
2.104018249	-4.441186971	-52.08455803
2.107010469	-4.233595292	-51.71548692
2.110002689	-4.019086261	-51.33002349
2.112553603	-3.830708282	-50.9878298
2.115104516	-3.637193866	-50.63271398
2.11765543	-3.438490946	-50.26438925
2.12083066	-3.183809405	-49.7871559
2.122989418	-3.00596637	-49.45069316
2.125148176	-2.824291346	-49.10444922
2.128046758	-2.574320341	-48.62411266
2.130876862	-2.323602056	-48.13802867
2.133706967	-2.066364753	-47.63506781
2.135478887	-1.902025211	-47.31158437
2.137250808	-1.735185607	-46.98151052
2.140128298	-1.458950353	-46.4315174
2.143005788	-1.176252998	-45.86432562
2.14491372	-0.985299263	-45.47881256
2.146821653	-0.791608999	-45.08581765
2.149197412	-0.546672405	-44.58604566
2.151573171	-0.297672111	-44.07478658
2.153688644	-0.072600794	-43.60993351
2.156686679	0.251662443	-42.93577091
2.159303542	0.53966284	-42.33272307
2.161361817	0.769379435	-41.8489191
2.163420091	1.001842321	-41.35683384
2.165765163	1.269988149	-40.78615242
2.168110236	1.541566455	-40.20486534
2.170074874	1.771688336	-39.70977133
2.17275772	2.089716939	-39.02185014
2.175440565	2.412071534	-38.3203942
2.177499634	2.662400534	-37.77293666
2.179558702	2.915251551	-37.21765195
2.181637264	3.173049363	-36.6492234
2.184357408	3.514280444	-35.89345664
2.187077552	3.859879867	-35.12433259
2.189141519	4.12504333	-34.53190701
2.191205485	4.392732284	-33.93193375
2.193086376	4.638883998	-33.37866238
2.19573036	4.988454869	-32.59053452
2.198374345	5.34214686	-31.79044271
2.200314329	5.604265124	-31.19590876
2.202254313	5.868547393	-30.59517656
2.204429467	6.16741727	-29.91440353
2.206604621	6.468953483	-29.22618688
2.209043009	6.810134381	-28.44607867
2.211481397	7.1546591	-27.65714956
2.213428024	7.43213532	-27.02119353
2.215844622	7.779645416	-26.22441387
2.218799844	8.209200604	-25.23973791
2.220733637	8.493031319	-24.58975142
2.222667429	8.779061068	-23.93571644
2.225282057	9.169433728	-23.04569811
2.227896684	9.564179596	-22.15023244
2.229868778	9.864778817	-21.47212755
2.231840872	10.16730447	-20.7925043
2.234500103	10.57645689	-19.87469101
2.237159334	10.98444378	-18.95610955
2.239030352	11.26967123	-18.30963662
2.240901369	11.55284785	-17.66319945
2.243312414	11.9143603	-16.83041525
2.245723458	12.27188284	-15.99808598
2.247847987	12.58366595	-15.26518236
2.250603987	12.98380704	-14.31536421
2.253359987	13.37940617	-13.36684333
2.255656924	13.70586716	-12.57748565
2.257953861	14.02949861	-11.78931881
2.26053059	14.38924003	-10.90666896
2.26310732	14.74544748	-10.02572635
2.265518029	15.07543313	-9.203166199
2.267114645	15.29219048	-8.659289299
2.268711262	15.50752362	-8.116134856
2.271596341	15.89288067	-7.136544482
2.27448142	16.27305915	-6.159490345
2.276588834	16.54724892	-5.447429865
2.278696248	16.81825512	-4.73677436
2.280956214	17.10519055	-3.976270572
2.28321618	17.38826775	-3.217483443
2.286053769	17.73837817	-2.267320439
2.288891358	18.08285924	-1.320215698
2.291728948	18.422042	-0.376416323
2.294566537	18.75609229	0.563763595
2.29707174	19.04668412	1.390492282
2.299576943	19.33292644	2.213749585
2.302082146	19.61433286	3.03314521
2.303966507	19.8224123	3.646684206
2.306574691	20.10468458	4.491591632
2.308610228	20.3197552	5.147269992
2.310645765	20.52964581	5.799485994
2.312681302	20.73363843	6.448023797
2.314716839	20.9306527	7.09255252
2.317277434	21.16599638	7.896809771
2.319838028	21.38293175	8.692284975
2.322543589	21.58532777	9.520910662
2.324629481	21.71775236	10.14977568
2.326715372	21.82637094	10.76891786
2.328801263	21.9096318	11.37798777
2.330887155	21.96782307	11.97740441
2.331937513	21.98825072	12.27593257
2.332987871	22.00319481	12.57246238
2.335084267	22.01816134	13.15895046
2.337180663	22.01633371	13.73943995
2.339911988	21.99524559	14.48904611
2.342643314	21.96051386	15.23358046
2.346168121	21.9051809	16.18967171
2.348587781	21.86356778	16.84336913
